Coordinates
version=1
nRows=9
nColumns=36
inDegrees=yes

Units are S.I. units (second, meters, Newtons, ...)
If the header above contains a line with 'inDegrees', this indicates whether rotational values are in degrees (yes) or radians (no).

endheader
time	pelvis_tilt	pelvis_list	pelvis_rotation	pelvis_tx	pelvis_ty	pelvis_tz	hip_flexion_r	hip_adduction_r	hip_rotation_r	knee_angle_r	knee_angle_r_beta	ankle_angle_r	subtalar_angle_r	mtp_angle_r	hip_flexion_l	hip_adduction_l	hip_rotation_l	knee_angle_l	knee_angle_l_beta	ankle_angle_l	subtalar_angle_l	mtp_angle_l	lumbar_extension	lumbar_bending	lumbar_rotation	arm_flex_r	arm_add_r	arm_rot_r	elbow_flex_r	pro_sup_r	arm_flex_l	arm_add_l	arm_rot_l	elbow_flex_l	pro_sup_l
      5.06250000	     -4.77955330	     -1.88065109	      2.05503723	      0.36577183	      1.33093995	     -0.08494791	     13.00084988	     -3.81237598	     -1.62091354	     30.09135960	      0.52519330	    -10.41710238	      0.50071903	     -7.49999987	     14.95841859	     -3.72223098	     -3.01127821	     31.34730319	      0.54711365	    -25.90272013	      4.52437225	     -7.49999987	    -15.39510025	      7.38540154	      1.36167029	     37.38830560	    -39.94280232	     25.51362005	     56.36775930	     73.43364479	     41.20027395	    -21.73269593	     37.04390368	     60.45914473	     56.16702993
      5.06666670	     -4.56021406	     -1.77633871	      2.04634854	      0.36594525	      1.33992359	     -0.08402953	     13.12375744	     -3.90488614	     -0.96859643	     30.29185155	      0.52869255	    -10.22386793	     -0.29365942	     -7.49999987	     15.07810489	     -3.69104884	     -3.03573265	     31.64961367	      0.55238997	    -25.23254697	      3.78312941	     -7.49999987	    -15.88630791	      7.30434208	      1.06459242	     36.55121905	    -38.48315086	     25.41208646	     54.94256815	     73.71818706	     40.54352795	    -21.25455661	     36.78903316	     58.18849256	     56.01049871
      5.07083330	     -4.23695659	     -1.69810966	      1.95340859	      0.36526787	      1.34485101	     -0.08077154	     13.21455731	     -3.86686186	     -0.62600966	     30.66890202	      0.53527332	     -9.97180382	     -1.41818824	     -7.49999987	     14.95725615	     -3.86174611	     -3.25371440	     31.75494018	      0.55422826	    -24.49230050	      3.40742693	     -7.49999987	    -16.60143546	      7.18004620	      0.83932480	     35.69566634	    -37.22158760	     25.30850876	     54.24419141	     73.95431562	     39.86138870	    -21.17889692	     36.57292752	     56.50424385	     55.88506075
      5.07500000	     -4.00706469	     -1.61036551	      1.89824592	      0.36150482	      1.34755063	     -0.07894914	     13.70337831	     -3.73797709	     -0.28406466	     31.18850568	      0.54434211	     -9.07954256	     -2.17849288	     -7.49999987	     15.44463153	     -3.98353068	     -3.43618372	     32.50320342	      0.56728792	    -23.56051995	      2.75052858	     -7.49999987	    -17.44039799	      6.94838792	      0.68399942	     34.88231626	    -35.89544169	     24.64648003	     53.17410558	     73.61207042	     39.48407027	    -21.05872027	     36.41036280	     54.89021203	     55.97359826
      5.07916670	     -3.66091973	     -1.58214715	      1.81901547	      0.36109870	      1.35154835	     -0.08045199	     13.89706607	     -3.69283250	     -0.00835023	     31.51353573	      0.55001496	     -8.70766530	     -2.41114702	     -7.49999987	     15.51703570	     -4.02436959	     -3.55750217	     33.03170704	      0.57651205	    -22.52902692	      2.21876198	     -7.49999987	    -18.37953805	      6.79719508	      0.52287527	     34.10924952	    -35.12238172	     24.79360442	     52.84348658	     73.66997408	     39.01189532	    -21.15631254	     36.46823367	     54.28543047	     55.94131802
      5.08333330	     -3.64442058	     -1.48580593	      1.71721848	      0.35991206	      1.35483827	     -0.07914605	     14.61289757	     -3.68923261	      0.33655446	     32.20664738	      0.56211204	     -8.08626411	     -3.77272810	     -7.49999987	     16.12849890	     -4.07877610	     -3.89563990	     33.78675023	      0.58969003	    -21.51994239	      1.36576437	     -7.49999987	    -18.90902223	      6.71223039	      0.24598578	     33.71850060	    -33.52608222	     23.73042148	     50.85183203	     73.84444004	     38.59400154	    -20.88048496	     36.44031481	     52.11551369	     55.76996411
      5.08750000	     -3.25471751	     -1.44032743	      1.62675004	      0.36086792	      1.36096097	     -0.07761630	     14.61137976	     -3.75787196	      0.19818987	     32.27792741	      0.56335611	     -7.23532097	     -5.41488324	     -7.49999987	     16.19856287	     -4.28478731	     -4.36110252	     34.37810795	      0.60001117	    -20.57051862	      0.34077787	     -7.49999987	    -19.81755897	      6.51644270	      0.16297291	     32.96450736	    -32.28599543	     23.01212812	     49.43498985	     74.09199683	     38.32412645	    -20.59148299	     36.75040647	     50.41686851	     55.60223144
      5.09166670	     -2.95984558	     -1.42191818	      1.74856764	      0.36285977	      1.36742228	     -0.07336786	     14.42332908	     -3.58177864	      0.16260041	     32.16843921	      0.56144518	     -7.02730199	     -7.06089863	     -7.49999987	     15.98354737	     -4.63985118	     -4.74682094	     34.35638832	      0.59963210	    -19.93417434	     -0.45889676	     -7.49999987	    -20.58543268	      6.33179426	     -0.10510400	     32.13209619	    -31.09011655	     22.41000221	     48.37703441	     74.10527549	     37.72671530	    -20.57136405	     36.95750587	     48.97032168	     55.47469577
      5.09583330	     -2.57655710	     -1.49358258	      1.84345619	      0.36062683	      1.36686163	     -0.07393311	     14.63295994	     -3.41965295	      0.06205914	     32.73381352	      0.57131282	     -6.58876660	     -8.54131506	     -7.49999987	     16.14433561	     -4.94563972	     -4.68814244	     34.89322791	      0.60900171	    -19.31361232	     -1.44959106	     -7.49999987	    -21.38556855	      6.18447295	     -0.24579923	     31.27178953	    -29.94878211	     21.58757057	     47.31843999	     73.75434663	     37.33491646	    -20.37694616	     37.27106996	     47.61204695	     55.41824554
